<?xml version="1.0" encoding="UTF-8" standalone="no"?>
<!-- Created with Inkscape (http://www.inkscape.org/) -->

<svg
   version="1.1"
   id="svg658"
   width="123.37762"
   height="124.1284"
   viewBox="0 0 123.37761 124.12839"
   sodipodi:docname="logo.svg"
   inkscape:version="1.2.1 (9c6d41e, 2022-07-14)"
   xmlns:inkscape="http://www.inkscape.org/namespaces/inkscape"
   xmlns:sodipodi="http://sodipodi.sourceforge.net/DTD/sodipodi-0.dtd"
   xmlns="http://www.w3.org/2000/svg"
   xmlns:svg="http://www.w3.org/2000/svg">
  <defs
     id="defs662">
    <inkscape:path-effect
       effect="bspline"
       id="path-effect899"
       is_visible="true"
       lpeversion="1"
       weight="33.333333"
       steps="2"
       helper_size="0"
       apply_no_weight="true"
       apply_with_weight="true"
       only_selected="false" />
  </defs>
  <sodipodi:namedview
     id="namedview660"
     pagecolor="#ffffff"
     bordercolor="#666666"
     borderopacity="1.0"
     inkscape:showpageshadow="2"
     inkscape:pageopacity="0.0"
     inkscape:pagecheckerboard="0"
     inkscape:deskcolor="#d1d1d1"
     showgrid="false"
     inkscape:zoom="3.9958458"
     inkscape:cx="64.692186"
     inkscape:cy="63.440887"
     inkscape:window-width="1484"
     inkscape:window-height="815"
     inkscape:window-x="0"
     inkscape:window-y="38"
     inkscape:window-maximized="0"
     inkscape:current-layer="g666">
    <inkscape:page
       x="0"
       y="0"
       id="page664"
       width="123.37761"
       height="124.12839"
       inkscape:export-filename="opa_logo.png"
       inkscape:export-xdpi="600"
       inkscape:export-ydpi="600" />
  </sodipodi:namedview>
  <g
     id="g666"
     inkscape:groupmode="layer"
     inkscape:label="Page 1"
     transform="matrix(1.3333333,0,0,-1.3333333,3.5031188,120.62527)">
    <g
       id="g668"
       transform="matrix(1.0101668,0,0,0.99795935,7.5733371,7.4546062)">
      <g
         id="g670">
        <g
           id="g672">
          <g
             id="g674">
            <g
               id="g676">
              <path
                 d="M 7.08669,0 C 7.08669,3.91391 3.91391,7.08669 0,7.08669 -3.91391,7.08669 -7.08669,3.91391 -7.08669,0 c 0,-3.91391 3.17278,-7.08669 7.08669,-7.08669 3.91391,0 7.08669,3.17278 7.08669,7.08669 z"
                 style="fill:#ff3333;fill-opacity:1;fill-rule:nonzero;stroke:#000000;stroke-width:0.3985;stroke-linecap:butt;stroke-linejoin:miter;stroke-miterlimit:10;stroke-dasharray:none;stroke-opacity:1"
                 id="path678" />
            </g>
            <g
               id="g680">
              <g
                 id="g682" />
            </g>
          </g>
          <g
             id="g684">
            <g
               id="g686">
              <path
                 d="m 31.56395,24.47726 c 0,3.91391 -3.17278,7.08669 -7.08669,7.08669 -3.91392,0 -7.0867,-3.17278 -7.0867,-7.08669 0,-3.91392 3.17278,-7.0867 7.0867,-7.0867 3.91391,0 7.08669,3.17278 7.08669,7.0867 z"
                 style="fill:#ff9933;fill-opacity:1;fill-rule:nonzero;stroke:#000000;stroke-width:0.3985;stroke-linecap:butt;stroke-linejoin:miter;stroke-miterlimit:10;stroke-dasharray:none;stroke-opacity:1"
                 id="path688" />
            </g>
            <g
               id="g690"
               transform="translate(24.477,24.477)">
              <g
                 id="g692" />
              <g
                 id="g694"
                 transform="translate(-24.477,-24.477)" />
            </g>
          </g>
          <g
             id="g696">
            <path
               d="M 16.85075,23.13264 C 8.55698,21.67027 2.80698,15.92027 1.26505,7.1752"
               style="fill:none;stroke:#000000;stroke-width:0.3985;stroke-linecap:butt;stroke-linejoin:miter;stroke-miterlimit:10;stroke-dasharray:none;stroke-opacity:1"
               id="path698" />
            <g
               id="g700"
               transform="matrix(0.9848,0.17363,-0.17363,0.9848,16.85074,23.13264)">
              <g
                 id="g702">
                <path
                   d="M -1.19551,1.59401 C -1.09587,0.99626 0,0.09961 0.29886,0 0,-0.09961 -1.09587,-0.99626 -1.19551,-1.59401"
                   style="fill:none;stroke:#000000;stroke-width:0.31879;stroke-linecap:round;stroke-linejoin:round;stroke-miterlimit:10;stroke-dasharray:none;stroke-opacity:1"
                   id="path704" />
              </g>
            </g>
          </g>
          <g
             id="g706">
            <g
               id="g708">
              <path
                 d="m 56.04121,48.95453 c 0,3.91391 -3.17277,7.08668 -7.08668,7.08668 -3.91391,0 -7.08669,-3.17277 -7.08669,-7.08668 0,-3.91391 3.17278,-7.08669 7.08669,-7.08669 3.91391,0 7.08668,3.17278 7.08668,7.08669 z"
                 style="fill:#fff533;fill-opacity:1;fill-rule:nonzero;stroke:#000000;stroke-width:0.3985;stroke-linecap:butt;stroke-linejoin:miter;stroke-miterlimit:10;stroke-dasharray:none;stroke-opacity:1"
                 id="path710" />
            </g>
            <g
               id="g712"
               transform="translate(48.954,48.954)">
              <g
                 id="g714" />
              <g
                 id="g716"
                 transform="translate(-48.954,-48.954)" />
            </g>
          </g>
          <g
             id="g718">
            <path
               d="M 41.32802,47.60991 C 33.03424,46.14754 27.28424,40.39755 25.74231,31.65247"
               style="fill:none;stroke:#000000;stroke-width:0.3985;stroke-linecap:butt;stroke-linejoin:miter;stroke-miterlimit:10;stroke-dasharray:none;stroke-opacity:1"
               id="path720" />
            <g
               id="g722"
               transform="matrix(0.9848,0.17363,-0.17363,0.9848,41.328,47.60991)">
              <g
                 id="g724">
                <path
                   d="M -1.19551,1.59401 C -1.09587,0.99626 0,0.09961 0.29886,0 0,-0.09961 -1.09587,-0.99626 -1.19551,-1.59401"
                   style="fill:none;stroke:#000000;stroke-width:0.31879;stroke-linecap:round;stroke-linejoin:round;stroke-miterlimit:10;stroke-dasharray:none;stroke-opacity:1"
                   id="path726" />
              </g>
            </g>
          </g>
          <g
             id="g728">
            <path
               d="m 48.95453,41.21031 c 0,-22.92709 -18.74901,-46.5361 -41.77933,-42.47536"
               style="fill:none;stroke:#000000;stroke-width:0.3985;stroke-linecap:butt;stroke-linejoin:miter;stroke-miterlimit:10;stroke-dasharray:none;stroke-opacity:1"
               id="path730" />
            <g
               id="g732"
               transform="rotate(90,3.87211,45.08242)">
              <g
                 id="g734">
                <path
                   d="M -1.19551,1.59401 C -1.09587,0.99626 0,0.09961 0.29886,0 0,-0.09961 -1.09587,-0.99626 -1.19551,-1.59401"
                   style="fill:none;stroke:#000000;stroke-width:0.31879;stroke-linecap:round;stroke-linejoin:round;stroke-miterlimit:10;stroke-dasharray:none;stroke-opacity:1"
                   id="path736" />
              </g>
            </g>
          </g>
          <g
             id="g738">
            <g
               id="g740">
              <path
                 d="m 80.5185,73.4318 c 0,3.91392 -3.17278,7.0867 -7.0867,7.0867 -3.91392,0 -7.08669,-3.17278 -7.08669,-7.0867 0,-3.91392 3.17277,-7.08669 7.08669,-7.08669 3.91392,0 7.0867,3.17277 7.0867,7.08669 z"
                 style="fill:#00cc00;fill-opacity:1;fill-rule:nonzero;stroke:#000000;stroke-width:0.3985;stroke-linecap:butt;stroke-linejoin:miter;stroke-miterlimit:10;stroke-dasharray:none;stroke-opacity:1"
                 id="path742" />
            </g>
            <g
               id="g744"
               transform="translate(73.431,73.431)">
              <g
                 id="g746" />
              <g
                 id="g748"
                 transform="translate(-73.431,-73.431)" />
            </g>
          </g>
          <g
             id="g750">
            <path
               d="M 65.80528,72.08717 C 57.5115,70.62482 51.7615,64.87482 50.21957,56.12975"
               style="fill:none;stroke:#000000;stroke-width:0.3985;stroke-linecap:butt;stroke-linejoin:miter;stroke-miterlimit:10;stroke-dasharray:none;stroke-opacity:1"
               id="path752" />
            <g
               id="g754"
               transform="matrix(0.9848,0.17363,-0.17363,0.9848,65.80527,72.08717)">
              <g
                 id="g756">
                <path
                   d="M -1.19551,1.59401 C -1.09587,0.99626 0,0.09961 0.29886,0 0,-0.09961 -1.09587,-0.99626 -1.19551,-1.59401"
                   style="fill:none;stroke:#000000;stroke-width:0.31879;stroke-linecap:round;stroke-linejoin:round;stroke-miterlimit:10;stroke-dasharray:none;stroke-opacity:1"
                   id="path758" />
              </g>
            </g>
          </g>
          <g
             id="g760">
            <path
               d="m 73.4318,65.68758 c 0,-22.9271 -18.74901,-46.53612 -41.77933,-42.47536"
               style="fill:none;stroke:#000000;stroke-width:0.3985;stroke-linecap:butt;stroke-linejoin:miter;stroke-miterlimit:10;stroke-dasharray:none;stroke-opacity:1"
               id="path762" />
            <g
               id="g764"
               transform="rotate(90,3.87211,69.55969)">
              <g
                 id="g766">
                <path
                   d="M -1.19551,1.59401 C -1.09587,0.99626 0,0.09961 0.29886,0 0,-0.09961 -1.09587,-0.99626 -1.19551,-1.59401"
                   style="fill:none;stroke:#000000;stroke-width:0.31879;stroke-linecap:round;stroke-linejoin:round;stroke-miterlimit:10;stroke-dasharray:none;stroke-opacity:1"
                   id="path768" />
              </g>
            </g>
          </g>
          <g
             id="g770">
            <path
               d="M 65.80528,74.77641 C 29.89862,81.10754 0,44.20442 0,7.28593"
               style="fill:none;stroke:#000000;stroke-width:0.3985;stroke-linecap:butt;stroke-linejoin:miter;stroke-miterlimit:10;stroke-dasharray:none;stroke-opacity:1"
               id="path772" />
            <g
               id="g774"
               transform="matrix(0.9848,-0.17363,0.17363,0.9848,65.80527,74.77641)">
              <g
                 id="g776">
                <path
                   d="M -1.19551,1.59401 C -1.09587,0.99626 0,0.09961 0.29886,0 0,-0.09961 -1.09587,-0.99626 -1.19551,-1.59401"
                   style="fill:none;stroke:#000000;stroke-width:0.31879;stroke-linecap:round;stroke-linejoin:round;stroke-miterlimit:10;stroke-dasharray:none;stroke-opacity:1"
                   id="path778" />
              </g>
            </g>
          </g>
        </g>
      </g>
    </g>
    <path
       style="fill:none;stroke:#000000;stroke-width:0.753033px;stroke-linecap:butt;stroke-linejoin:miter;stroke-opacity:1"
       d="m -2.0619769,90.467813 c 0,-30.844777 0,-61.68806 0,-92.5320897 0,0 93.0951749,0 93.0951749,0"
       id="path897"
       inkscape:path-effect="#path-effect899"
       inkscape:original-d="m -2.0619769,90.467813 c 7.576e-4,-30.844777 0,-92.5320897 0,-92.5320897 0,0 93.0951749,0 93.0951749,0" />
  </g>
</svg>
